<mxfile host="app.diagrams.net" modified="2024-06-20T09:39:54.714Z" agent="Mozilla/5.0 (Macintosh; Intel Mac OS X 10.15; rv:127.0) Gecko/20100101 Firefox/127.0" etag="zhhYOeiJxpn2nsAe2i7x" version="24.5.2" type="device">
  <diagram name="Page-1" id="frDRsrpcjd5g-_eb1XCY">
    <mxGraphModel dx="2272" dy="868" grid="1" gridSize="10" guides="1" tooltips="1" connect="1" arrows="1" fold="1" page="1" pageScale="1" pageWidth="850" pageHeight="1100" math="0" shadow="0">
      <root>
        <mxCell id="0" />
        <mxCell id="1" parent="0" />
        <mxCell id="zklpxBQb0w-55Z-5VCmR-1" value="&lt;b&gt;App&lt;/b&gt;&lt;br&gt;&lt;br&gt;Simulates app and generates load" style="rounded=0;whiteSpace=wrap;html=1;" vertex="1" parent="1">
          <mxGeometry x="80" y="280" width="200" height="100" as="geometry" />
        </mxCell>
        <mxCell id="zklpxBQb0w-55Z-5VCmR-2" value="&lt;div&gt;&lt;b&gt;BFF 1&lt;/b&gt;&lt;br&gt;&lt;/div&gt;&lt;div&gt;&lt;br&gt;&lt;/div&gt;&lt;div&gt;&lt;br&gt;&lt;/div&gt;" style="rounded=0;whiteSpace=wrap;html=1;" vertex="1" parent="1">
          <mxGeometry x="380" y="280" width="200" height="100" as="geometry" />
        </mxCell>
        <mxCell id="zklpxBQb0w-55Z-5VCmR-4" value="&lt;div&gt;&lt;b&gt;BFF 2&lt;/b&gt;&lt;/div&gt;&lt;div&gt;&lt;b&gt;&lt;br&gt;&lt;/b&gt;&lt;/div&gt;&lt;div&gt;&lt;b&gt;&lt;br&gt;&lt;/b&gt;&lt;/div&gt;" style="rounded=0;whiteSpace=wrap;html=1;" vertex="1" parent="1">
          <mxGeometry x="680" y="280" width="200" height="100" as="geometry" />
        </mxCell>
        <mxCell id="zklpxBQb0w-55Z-5VCmR-5" value="&lt;div&gt;&lt;b&gt;Backend 1&lt;/b&gt;&lt;/div&gt;&lt;div&gt;&lt;br&gt;&lt;/div&gt;&lt;div&gt;&lt;br&gt;&lt;/div&gt;" style="rounded=0;whiteSpace=wrap;html=1;" vertex="1" parent="1">
          <mxGeometry x="980" y="280" width="200" height="100" as="geometry" />
        </mxCell>
        <mxCell id="zklpxBQb0w-55Z-5VCmR-6" value="&lt;div&gt;&lt;b&gt;Backend 2&lt;/b&gt;&lt;/div&gt;&lt;div&gt;&lt;b&gt;&lt;br&gt;&lt;/b&gt;&lt;/div&gt;&lt;div&gt;&lt;b&gt;&lt;br&gt;&lt;/b&gt;&lt;/div&gt;" style="rounded=0;whiteSpace=wrap;html=1;" vertex="1" parent="1">
          <mxGeometry x="1280" y="280" width="200" height="100" as="geometry" />
        </mxCell>
        <mxCell id="zklpxBQb0w-55Z-5VCmR-7" value="" style="endArrow=none;dashed=1;html=1;dashPattern=1 3;strokeWidth=2;rounded=0;entryX=0.5;entryY=1;entryDx=0;entryDy=0;" edge="1" parent="1" target="zklpxBQb0w-55Z-5VCmR-1">
          <mxGeometry width="50" height="50" relative="1" as="geometry">
            <mxPoint x="180" y="920" as="sourcePoint" />
            <mxPoint x="220" y="500" as="targetPoint" />
          </mxGeometry>
        </mxCell>
        <mxCell id="zklpxBQb0w-55Z-5VCmR-9" value="" style="endArrow=none;dashed=1;html=1;dashPattern=1 3;strokeWidth=2;rounded=0;entryX=0.5;entryY=1;entryDx=0;entryDy=0;" edge="1" parent="1" source="zklpxBQb0w-55Z-5VCmR-13">
          <mxGeometry width="50" height="50" relative="1" as="geometry">
            <mxPoint x="479.5" y="920" as="sourcePoint" />
            <mxPoint x="479.5" y="380" as="targetPoint" />
          </mxGeometry>
        </mxCell>
        <mxCell id="zklpxBQb0w-55Z-5VCmR-10" value="" style="endArrow=none;dashed=1;html=1;dashPattern=1 3;strokeWidth=2;rounded=0;entryX=0.5;entryY=1;entryDx=0;entryDy=0;" edge="1" parent="1" source="zklpxBQb0w-55Z-5VCmR-24">
          <mxGeometry width="50" height="50" relative="1" as="geometry">
            <mxPoint x="779.5" y="920" as="sourcePoint" />
            <mxPoint x="779.5" y="380" as="targetPoint" />
          </mxGeometry>
        </mxCell>
        <mxCell id="zklpxBQb0w-55Z-5VCmR-11" value="" style="endArrow=none;dashed=1;html=1;dashPattern=1 3;strokeWidth=2;rounded=0;entryX=0.5;entryY=1;entryDx=0;entryDy=0;" edge="1" parent="1">
          <mxGeometry width="50" height="50" relative="1" as="geometry">
            <mxPoint x="1079.5" y="920" as="sourcePoint" />
            <mxPoint x="1079.5" y="380" as="targetPoint" />
          </mxGeometry>
        </mxCell>
        <mxCell id="zklpxBQb0w-55Z-5VCmR-12" value="" style="endArrow=none;dashed=1;html=1;dashPattern=1 3;strokeWidth=2;rounded=0;entryX=0.5;entryY=1;entryDx=0;entryDy=0;" edge="1" parent="1">
          <mxGeometry width="50" height="50" relative="1" as="geometry">
            <mxPoint x="1379.5" y="920" as="sourcePoint" />
            <mxPoint x="1379.5" y="380" as="targetPoint" />
          </mxGeometry>
        </mxCell>
        <mxCell id="zklpxBQb0w-55Z-5VCmR-14" value="" style="endArrow=none;dashed=1;html=1;dashPattern=1 3;strokeWidth=2;rounded=0;entryX=0.5;entryY=1;entryDx=0;entryDy=0;" edge="1" parent="1" target="zklpxBQb0w-55Z-5VCmR-13">
          <mxGeometry width="50" height="50" relative="1" as="geometry">
            <mxPoint x="479.5" y="920" as="sourcePoint" />
            <mxPoint x="479.5" y="380" as="targetPoint" />
          </mxGeometry>
        </mxCell>
        <mxCell id="zklpxBQb0w-55Z-5VCmR-13" value="" style="rounded=0;whiteSpace=wrap;html=1;" vertex="1" parent="1">
          <mxGeometry x="470" y="430" width="20" height="190" as="geometry" />
        </mxCell>
        <mxCell id="zklpxBQb0w-55Z-5VCmR-15" value="" style="endArrow=classic;html=1;rounded=0;entryX=0;entryY=0;entryDx=0;entryDy=0;" edge="1" parent="1" target="zklpxBQb0w-55Z-5VCmR-13">
          <mxGeometry width="50" height="50" relative="1" as="geometry">
            <mxPoint x="180" y="430" as="sourcePoint" />
            <mxPoint x="300" y="500" as="targetPoint" />
          </mxGeometry>
        </mxCell>
        <mxCell id="zklpxBQb0w-55Z-5VCmR-16" value="GET /car/carID" style="edgeLabel;html=1;align=center;verticalAlign=middle;resizable=0;points=[];" vertex="1" connectable="0" parent="zklpxBQb0w-55Z-5VCmR-15">
          <mxGeometry x="-0.1395" relative="1" as="geometry">
            <mxPoint x="26" as="offset" />
          </mxGeometry>
        </mxCell>
        <mxCell id="zklpxBQb0w-55Z-5VCmR-17" value="" style="endArrow=classic;html=1;rounded=0;entryX=0;entryY=0;entryDx=0;entryDy=0;" edge="1" parent="1" target="zklpxBQb0w-55Z-5VCmR-19">
          <mxGeometry width="50" height="50" relative="1" as="geometry">
            <mxPoint x="490" y="480" as="sourcePoint" />
            <mxPoint x="990" y="480" as="targetPoint" />
          </mxGeometry>
        </mxCell>
        <mxCell id="zklpxBQb0w-55Z-5VCmR-18" value="GET /data/car/carID" style="edgeLabel;html=1;align=center;verticalAlign=middle;resizable=0;points=[];" vertex="1" connectable="0" parent="zklpxBQb0w-55Z-5VCmR-17">
          <mxGeometry x="-0.1395" relative="1" as="geometry">
            <mxPoint x="110" as="offset" />
          </mxGeometry>
        </mxCell>
        <mxCell id="zklpxBQb0w-55Z-5VCmR-19" value="" style="rounded=0;whiteSpace=wrap;html=1;" vertex="1" parent="1">
          <mxGeometry x="1070" y="480" width="20" height="110" as="geometry" />
        </mxCell>
        <mxCell id="zklpxBQb0w-55Z-5VCmR-20" value="" style="endArrow=classic;html=1;rounded=0;exitX=0;exitY=1;exitDx=0;exitDy=0;entryX=1.132;entryY=0.847;entryDx=0;entryDy=0;entryPerimeter=0;" edge="1" parent="1" source="zklpxBQb0w-55Z-5VCmR-19" target="zklpxBQb0w-55Z-5VCmR-13">
          <mxGeometry width="50" height="50" relative="1" as="geometry">
            <mxPoint x="920" y="650" as="sourcePoint" />
            <mxPoint x="970" y="600" as="targetPoint" />
          </mxGeometry>
        </mxCell>
        <mxCell id="zklpxBQb0w-55Z-5VCmR-22" value="2% error 404 / car carID" style="edgeLabel;html=1;align=center;verticalAlign=middle;resizable=0;points=[];" vertex="1" connectable="0" parent="zklpxBQb0w-55Z-5VCmR-20">
          <mxGeometry x="-0.22" y="2" relative="1" as="geometry">
            <mxPoint as="offset" />
          </mxGeometry>
        </mxCell>
        <mxCell id="zklpxBQb0w-55Z-5VCmR-21" value="" style="endArrow=classic;html=1;rounded=0;exitX=0;exitY=1;exitDx=0;exitDy=0;" edge="1" parent="1" source="zklpxBQb0w-55Z-5VCmR-13">
          <mxGeometry width="50" height="50" relative="1" as="geometry">
            <mxPoint x="370" y="630" as="sourcePoint" />
            <mxPoint x="180" y="620" as="targetPoint" />
          </mxGeometry>
        </mxCell>
        <mxCell id="zklpxBQb0w-55Z-5VCmR-25" value="" style="endArrow=classic;html=1;rounded=0;entryX=0;entryY=0;entryDx=0;entryDy=0;" edge="1" parent="1" target="zklpxBQb0w-55Z-5VCmR-24">
          <mxGeometry width="50" height="50" relative="1" as="geometry">
            <mxPoint x="180" y="690" as="sourcePoint" />
            <mxPoint x="470" y="690" as="targetPoint" />
          </mxGeometry>
        </mxCell>
        <mxCell id="zklpxBQb0w-55Z-5VCmR-26" value="POST /car/carID/extras/extraID" style="edgeLabel;html=1;align=center;verticalAlign=middle;resizable=0;points=[];" vertex="1" connectable="0" parent="zklpxBQb0w-55Z-5VCmR-25">
          <mxGeometry x="-0.1395" relative="1" as="geometry">
            <mxPoint x="106" as="offset" />
          </mxGeometry>
        </mxCell>
        <mxCell id="zklpxBQb0w-55Z-5VCmR-27" value="" style="endArrow=none;dashed=1;html=1;dashPattern=1 3;strokeWidth=2;rounded=0;entryX=0.5;entryY=1;entryDx=0;entryDy=0;" edge="1" parent="1" target="zklpxBQb0w-55Z-5VCmR-24">
          <mxGeometry width="50" height="50" relative="1" as="geometry">
            <mxPoint x="779.5" y="920" as="sourcePoint" />
            <mxPoint x="779.5" y="380" as="targetPoint" />
          </mxGeometry>
        </mxCell>
        <mxCell id="zklpxBQb0w-55Z-5VCmR-24" value="" style="rounded=0;whiteSpace=wrap;html=1;" vertex="1" parent="1">
          <mxGeometry x="770" y="690" width="20" height="190" as="geometry" />
        </mxCell>
        <mxCell id="zklpxBQb0w-55Z-5VCmR-29" value="" style="rounded=0;whiteSpace=wrap;html=1;" vertex="1" parent="1">
          <mxGeometry x="1070" y="690" width="20" height="190" as="geometry" />
        </mxCell>
        <mxCell id="zklpxBQb0w-55Z-5VCmR-30" value="" style="endArrow=classic;html=1;rounded=0;exitX=1;exitY=0;exitDx=0;exitDy=0;entryX=0;entryY=0;entryDx=0;entryDy=0;" edge="1" parent="1" source="zklpxBQb0w-55Z-5VCmR-24" target="zklpxBQb0w-55Z-5VCmR-29">
          <mxGeometry width="50" height="50" relative="1" as="geometry">
            <mxPoint x="810" y="750" as="sourcePoint" />
            <mxPoint x="860" y="700" as="targetPoint" />
          </mxGeometry>
        </mxCell>
        <mxCell id="zklpxBQb0w-55Z-5VCmR-31" value="GET /data/car/carID/extras/extraID" style="edgeLabel;html=1;align=center;verticalAlign=middle;resizable=0;points=[];" vertex="1" connectable="0" parent="zklpxBQb0w-55Z-5VCmR-30">
          <mxGeometry x="-0.2066" y="-2" relative="1" as="geometry">
            <mxPoint as="offset" />
          </mxGeometry>
        </mxCell>
        <mxCell id="zklpxBQb0w-55Z-5VCmR-32" value="" style="rounded=0;whiteSpace=wrap;html=1;" vertex="1" parent="1">
          <mxGeometry x="1370" y="690" width="20" height="190" as="geometry" />
        </mxCell>
        <mxCell id="zklpxBQb0w-55Z-5VCmR-33" value="" style="endArrow=classic;html=1;rounded=0;exitX=1;exitY=0;exitDx=0;exitDy=0;entryX=0;entryY=0;entryDx=0;entryDy=0;" edge="1" parent="1">
          <mxGeometry width="50" height="50" relative="1" as="geometry">
            <mxPoint x="1090" y="690" as="sourcePoint" />
            <mxPoint x="1370" y="690" as="targetPoint" />
          </mxGeometry>
        </mxCell>
        <mxCell id="zklpxBQb0w-55Z-5VCmR-34" value="POST /sales/extras" style="edgeLabel;html=1;align=center;verticalAlign=middle;resizable=0;points=[];" vertex="1" connectable="0" parent="zklpxBQb0w-55Z-5VCmR-33">
          <mxGeometry x="-0.2066" y="-2" relative="1" as="geometry">
            <mxPoint as="offset" />
          </mxGeometry>
        </mxCell>
        <mxCell id="zklpxBQb0w-55Z-5VCmR-35" value="" style="endArrow=classic;html=1;rounded=0;exitX=-0.083;exitY=0.623;exitDx=0;exitDy=0;exitPerimeter=0;" edge="1" parent="1" source="zklpxBQb0w-55Z-5VCmR-24">
          <mxGeometry width="50" height="50" relative="1" as="geometry">
            <mxPoint x="570" y="850" as="sourcePoint" />
            <mxPoint x="180" y="808" as="targetPoint" />
          </mxGeometry>
        </mxCell>
        <mxCell id="zklpxBQb0w-55Z-5VCmR-36" value="1% error 500, 503, 504, 403" style="edgeLabel;html=1;align=center;verticalAlign=middle;resizable=0;points=[];" vertex="1" connectable="0" parent="zklpxBQb0w-55Z-5VCmR-35">
          <mxGeometry x="-0.1948" y="4" relative="1" as="geometry">
            <mxPoint as="offset" />
          </mxGeometry>
        </mxCell>
        <mxCell id="zklpxBQb0w-55Z-5VCmR-37" value="" style="endArrow=classic;html=1;rounded=0;exitX=-0.088;exitY=0.378;exitDx=0;exitDy=0;exitPerimeter=0;entryX=1.033;entryY=0.378;entryDx=0;entryDy=0;entryPerimeter=0;" edge="1" parent="1" source="zklpxBQb0w-55Z-5VCmR-29" target="zklpxBQb0w-55Z-5VCmR-24">
          <mxGeometry width="50" height="50" relative="1" as="geometry">
            <mxPoint x="840" y="780" as="sourcePoint" />
            <mxPoint x="890" y="730" as="targetPoint" />
          </mxGeometry>
        </mxCell>
        <mxCell id="zklpxBQb0w-55Z-5VCmR-38" value="0.5% error 502, 401" style="edgeLabel;html=1;align=center;verticalAlign=middle;resizable=0;points=[];" vertex="1" connectable="0" parent="zklpxBQb0w-55Z-5VCmR-37">
          <mxGeometry x="0.1798" y="2" relative="1" as="geometry">
            <mxPoint as="offset" />
          </mxGeometry>
        </mxCell>
        <mxCell id="zklpxBQb0w-55Z-5VCmR-39" value="" style="endArrow=classic;html=1;rounded=0;exitX=-0.209;exitY=0.257;exitDx=0;exitDy=0;exitPerimeter=0;entryX=1.215;entryY=0.254;entryDx=0;entryDy=0;entryPerimeter=0;" edge="1" parent="1" source="zklpxBQb0w-55Z-5VCmR-32" target="zklpxBQb0w-55Z-5VCmR-29">
          <mxGeometry width="50" height="50" relative="1" as="geometry">
            <mxPoint x="1180" y="790" as="sourcePoint" />
            <mxPoint x="1230" y="740" as="targetPoint" />
          </mxGeometry>
        </mxCell>
        <mxCell id="zklpxBQb0w-55Z-5VCmR-40" value="1.5% error 400, 500 / 201" style="edgeLabel;html=1;align=center;verticalAlign=middle;resizable=0;points=[];" vertex="1" connectable="0" parent="zklpxBQb0w-55Z-5VCmR-39">
          <mxGeometry x="0.0669" y="1" relative="1" as="geometry">
            <mxPoint as="offset" />
          </mxGeometry>
        </mxCell>
      </root>
    </mxGraphModel>
  </diagram>
</mxfile>
